# xmcd
#
# Track frame offsets: 
#        150
#        14502
#        30485
#        44877
#        62880
#        82492
#        98932
#        117075
#        134377
#        151705
#        172262
#        192632
#        203940
#
# Disc length: 2977 seconds
#
# Revision: 0
# Processed by: cddbd v1.4PL0 Copyright (c) Steve Scherf et al.
# Submitted via: ExactAudioCopy v0.90b4
#
DISCID=c30b9f0d
DTITLE=Henry de Winter - Die Stimme Eines Herrn
DYEAR=1996
DGENRE=Swing
TTITLE0=Liebling, mein Herz läßt dich grüßen
TTITLE1=Zwei rote Rosen, ein zarter Kuß
TTITLE2=Das Lied von der zerbrochenen Schallplatte
TTITLE3=Wenn der weiße Flieder wieder blüht
TTITLE4=Ich hol dir vom Himmel das Blau
TTITLE5=Unter den Pinien von Argentinien
TTITLE6=Mit einem Herzen darf man nicht spielen
TTITLE7=Ich küsse Ihre Hand, Madame
TTITLE8=Frauen sind so schön, wenn sie lieben
TTITLE9=Du hast Glück bei den Frau'n, Bel Ami
TTITLE10=Einen Walzer für dich und für mich
TTITLE11=Bitte, bitte, bitte, bitte, geh, laß mich ein
TTITLE12=Was macht der Maier am Himalaya
EXTD=
EXTT0=
EXTT1=
EXTT2=
EXTT3=
EXTT4=
EXTT5=
EXTT6=
EXTT7=
EXTT8=
EXTT9=
EXTT10=
EXTT11=
EXTT12=
PLAYORDER=
